<svg xmlns="http://www.w3.org/2000/svg" xmlns:xlink="http://www.w3.org/1999/xlink" zoomAndPan="magnify" viewBox="73.5 72 837 194" preserveAspectRatio="xMidYMid meet" version="1.0"><defs><g/><clipPath id="3e96d80436"><path d="M 0.933594 0 L 998.066406 0 L 998.066406 400.5 L 0.933594 400.5 Z M 0.933594 0 " clip-rule="nonzero"/></clipPath><clipPath id="09019a5595"><path d="M 0.203125 7 L 254 7 L 254 229.742188 L 0.203125 229.742188 Z M 0.203125 7 " clip-rule="nonzero"/></clipPath><clipPath id="ee5fc608b4"><rect x="0" width="254" y="0" height="223"/></clipPath><clipPath id="974c393670"><path d="M 244 0.0117188 L 836.960938 0.0117188 L 836.960938 155 L 244 155 Z M 244 0.0117188 " clip-rule="nonzero"/></clipPath><clipPath id="f2d8e3cfa3"><path d="M 324 0.0117188 L 372 0.0117188 L 372 118 L 324 118 Z M 324 0.0117188 " clip-rule="nonzero"/></clipPath><clipPath id="f3a27e4e69"><path d="M 383 0.0117188 L 459 0.0117188 L 459 118 L 383 118 Z M 383 0.0117188 " clip-rule="nonzero"/></clipPath><clipPath id="e07aef72ec"><rect x="0" width="593" y="0" height="155"/></clipPath><clipPath id="4585e6599e"><rect x="0" width="837" y="0" height="230"/></clipPath></defs><g transform="matrix(1, 0, 0, 1, 69, 80)"><g clip-path="url(#4585e6599e)"><g clip-path="url(#09019a5595)"><g transform="matrix(1, 0, 0, 1, -0.000000000000014211, 7)"><g clip-path="url(#ee5fc608b4)"><g fill="var(--brand-macrify-navy)" fill-opacity="1"><g transform="translate(0.341657, 171.092687)"><g><path d="M 87.90625 -168.546875 L 138.140625 -88.5625 L 82.625 -1.328125 L 12.125 -112.140625 L 12.125 -168.546875 Z M 240.359375 -168.546875 L 240.359375 0 L 144.75 0 L 144.75 -98.484375 L 189.25 -168.546875 Z M 12.125 -83.0625 L 14.09375 -83.0625 L 66.75 0 L 12.125 0 Z M 12.125 -83.0625 "/></g></g></g></g></g></g><g clip-path="url(#974c393670)"><g transform="matrix(1, 0, 0, 1, 244, -0.000000000000014211)"><g clip-path="url(#e07aef72ec)"><g fill="var(--brand-macrify-navy)" fill-opacity="1"><g transform="translate(0.616753, 117.861225)"><g><path d="M 34.015625 -86.1875 C 38.898438 -86.1875 43.019531 -84.484375 46.375 -81.078125 C 49.726562 -77.671875 51.40625 -73.578125 51.40625 -68.796875 C 51.40625 -64.015625 49.726562 -59.921875 46.375 -56.515625 C 43.019531 -53.109375 38.898438 -51.40625 34.015625 -51.40625 C 29.140625 -51.40625 25.019531 -53.109375 21.65625 -56.515625 C 18.300781 -59.921875 16.625 -64.015625 16.625 -68.796875 C 16.625 -73.679688 18.328125 -77.800781 21.734375 -81.15625 C 25.140625 -84.507812 29.234375 -86.1875 34.015625 -86.1875 Z M 97.015625 -78.71875 C 104.335938 -72.207031 108 -62.644531 108 -50.03125 L 108 0 L 60.859375 0 L 60.859375 -86.1875 L 70.78125 -86.1875 C 75.5625 -86.1875 80.441406 -85.550781 85.421875 -84.28125 C 90.410156 -83.007812 94.273438 -81.15625 97.015625 -78.71875 Z M 50.953125 -52.78125 L 50.953125 0 L 34.46875 0 C 29.59375 0 24.992188 -1.039062 20.671875 -3.125 C 16.347656 -5.207031 12.890625 -8.28125 10.296875 -12.34375 C 7.703125 -16.414062 6.40625 -21.25 6.40625 -26.84375 C 6.40625 -36.707031 10.878906 -44.691406 19.828125 -50.796875 C 22.171875 -49.066406 24.4375 -47.769531 26.625 -46.90625 C 28.8125 -46.039062 31.378906 -45.609375 34.328125 -45.609375 C 37.378906 -45.609375 40.195312 -46.140625 42.78125 -47.203125 C 45.375 -48.273438 48.097656 -50.132812 50.953125 -52.78125 Z M 50.953125 -52.78125 "/></g></g></g><g fill="var(--brand-macrify-navy)" fill-opacity="1"><g transform="translate(115.02325, 117.861225)"><g><path d="M 52.328125 -86.796875 L 52.328125 -5.1875 C 53.847656 -4.976562 55.726562 -4.875 57.96875 -4.875 C 65.1875 -4.875 71.664062 -6.703125 77.40625 -10.359375 C 83.15625 -14.023438 87.914062 -19.0625 91.6875 -25.46875 L 96.875 -24.25 C 92.695312 -16.425781 87.023438 -10.425781 79.859375 -6.25 C 72.691406 -2.082031 64.628906 0 55.671875 0 C 44.085938 0 34.554688 -2.1875 27.078125 -6.5625 C 19.597656 -10.9375 14.179688 -16.425781 10.828125 -23.03125 C 7.472656 -29.644531 5.796875 -36.457031 5.796875 -43.46875 C 5.796875 -50.59375 7.570312 -57.484375 11.125 -64.140625 C 14.6875 -70.804688 19.976562 -76.25 27 -80.46875 C 34.019531 -84.6875 42.460938 -86.796875 52.328125 -86.796875 Z M 79.171875 -86.796875 C 83.953125 -86.796875 88.019531 -85.09375 91.375 -81.6875 C 94.726562 -78.28125 96.40625 -74.238281 96.40625 -69.5625 C 96.40625 -64.78125 94.726562 -60.710938 91.375 -57.359375 C 88.019531 -54.003906 83.953125 -52.328125 79.171875 -52.328125 C 74.390625 -52.328125 70.320312 -54.003906 66.96875 -57.359375 C 63.613281 -60.710938 61.9375 -64.78125 61.9375 -69.5625 C 61.9375 -74.34375 63.640625 -78.410156 67.046875 -81.765625 C 70.453125 -85.117188 74.492188 -86.796875 79.171875 -86.796875 Z M 79.171875 -86.796875 "/></g></g></g><g fill="var(--brand-macrify-navy)" fill-opacity="1"><g transform="translate(213.565379, 117.861225)"><g><path d="M 56.4375 -73.0625 L 56.90625 -73.53125 C 60.5625 -76.988281 64.242188 -79.8125 67.953125 -82 C 71.671875 -84.1875 75.921875 -85.28125 80.703125 -85.28125 C 86.492188 -85.28125 91.242188 -83.523438 94.953125 -80.015625 C 98.671875 -76.503906 100.53125 -72.207031 100.53125 -67.125 C 100.53125 -62.132812 98.847656 -57.9375 95.484375 -54.53125 C 92.128906 -51.125 87.910156 -49.421875 82.828125 -49.421875 C 77.546875 -49.421875 73.175781 -51.175781 69.71875 -54.6875 C 66.257812 -58.195312 64.53125 -62.546875 64.53125 -67.734375 C 64.53125 -69.253906 64.9375 -71.539062 65.75 -74.59375 C 63.101562 -72.863281 60 -70.21875 56.4375 -66.65625 L 56.4375 0 L 9.921875 0 L 9.921875 -86.1875 L 56.4375 -86.1875 Z M 56.4375 -73.0625 "/></g></g></g><g clip-path="url(#f2d8e3cfa3)"><g fill="var(--brand-macrify-navy)" fill-opacity="1"><g transform="translate(315.310883, 117.861225)"><g><path d="M 31.125 -117.46875 C 38.644531 -117.46875 44.640625 -116.242188 49.109375 -113.796875 C 53.585938 -111.359375 55.828125 -108.257812 55.828125 -104.5 C 55.828125 -100.9375 53.640625 -97.984375 49.265625 -95.640625 C 44.898438 -93.304688 39.207031 -92.140625 32.1875 -92.140625 C 25.375 -92.140625 19.859375 -93.28125 15.640625 -95.5625 C 11.421875 -97.851562 9.3125 -100.929688 9.3125 -104.796875 C 9.3125 -108.554688 11.316406 -111.609375 15.328125 -113.953125 C 19.347656 -116.296875 24.613281 -117.46875 31.125 -117.46875 Z M 55.828125 -86.1875 L 55.828125 0 L 9.3125 0 L 9.3125 -86.1875 Z M 55.828125 -86.1875 "/></g></g></g></g><g clip-path="url(#f3a27e4e69)"><g fill="var(--brand-macrify-navy)" fill-opacity="1"><g transform="translate(380.446314, 117.861225)"><g><path d="M 38.90625 -115.625 C 42.664062 -116.75 47.238281 -117.3125 52.625 -117.3125 C 48.15625 -113.957031 45.921875 -109.53125 45.921875 -104.03125 C 45.921875 -98.34375 47.828125 -93.921875 51.640625 -90.765625 C 55.453125 -87.609375 59.953125 -86.03125 65.140625 -86.03125 L 77.953125 -86.03125 L 77.953125 -80.84375 L 59.953125 -80.84375 L 59.953125 0 L 13.421875 0 L 13.421875 -80.84375 L 2.59375 -80.84375 L 2.59375 -86.03125 L 13.421875 -86.03125 C 14.546875 -93.5625 17.34375 -99.867188 21.8125 -104.953125 C 26.289062 -110.035156 31.988281 -113.59375 38.90625 -115.625 Z M 63.921875 -117.3125 C 67.785156 -117.3125 71.035156 -115.988281 73.671875 -113.34375 C 76.316406 -110.695312 77.640625 -107.441406 77.640625 -103.578125 C 77.640625 -99.816406 76.316406 -96.585938 73.671875 -93.890625 C 71.035156 -91.191406 67.785156 -89.84375 63.921875 -89.84375 C 60.148438 -89.84375 56.914062 -91.191406 54.21875 -93.890625 C 51.53125 -96.585938 50.1875 -99.816406 50.1875 -103.578125 C 50.1875 -107.441406 51.53125 -110.695312 54.21875 -113.34375 C 56.914062 -115.988281 60.148438 -117.3125 63.921875 -117.3125 Z M 63.921875 -117.3125 "/></g></g></g></g><g fill="var(--brand-macrify-navy)" fill-opacity="1"><g transform="translate(458.242735, 117.861225)"><g><path d="M 92.59375 -18 C 87.613281 -7.519531 83.140625 0.207031 79.171875 5.1875 C 75.203125 10.164062 70.878906 14.234375 66.203125 17.390625 C 67.015625 15.453125 67.546875 13.875 67.796875 12.65625 C 68.054688 11.4375 68.1875 10.066406 68.1875 8.546875 C 68.1875 4.066406 67.09375 0.226562 64.90625 -2.96875 C 62.71875 -6.175781 59.992188 -8.617188 56.734375 -10.296875 C 53.484375 -11.972656 50.382812 -12.8125 47.4375 -12.8125 C 46.019531 -12.8125 44.90625 -12.710938 44.09375 -12.515625 L 3.8125 -86.1875 L 54.765625 -86.1875 Z M 132.5625 -86.1875 L 98.703125 -26.84375 L 66.203125 -86.1875 Z M 47.296875 -6.5625 C 51.460938 -6.5625 55.019531 -5.085938 57.96875 -2.140625 C 60.914062 0.804688 62.390625 4.367188 62.390625 8.546875 C 62.390625 12.710938 60.890625 16.269531 57.890625 19.21875 C 54.890625 22.164062 51.359375 23.640625 47.296875 23.640625 C 43.117188 23.640625 39.554688 22.164062 36.609375 19.21875 C 33.660156 16.269531 32.1875 12.710938 32.1875 8.546875 C 32.1875 4.367188 33.660156 0.804688 36.609375 -2.140625 C 39.554688 -5.085938 43.117188 -6.5625 47.296875 -6.5625 Z M 47.296875 -6.5625 "/></g></g></g></g></g></g></g></g></svg>