<svg xmlns="http://www.w3.org/2000/svg" xmlns:xlink="http://www.w3.org/1999/xlink" width="545" zoomAndPan="magnify" viewBox="0 0 408.75 408.749985" height="545" preserveAspectRatio="xMidYMid meet" version="1.0"><defs><g/><clipPath id="a635e6b673"><rect x="0" width="113" y="0" height="107"/></clipPath><clipPath id="e5b8cf7aa1"><path d="M 0 0 L 407.75 0 L 407.75 407.75 L 0 407.75 Z M 0 0 " clip-rule="nonzero"/></clipPath><clipPath id="c4ad0a8fdc"><path d="M 0 0 L 407.75 0 L 407.75 407.75 L 0 407.75 Z M 0 0 " clip-rule="nonzero"/></clipPath></defs><g transform="matrix(1, 0, 0, 1, 152, 158)"><g clip-path="url(#a635e6b673)"><g fill="#00357a" fill-opacity="1"><g transform="translate(0.869948, 82.546028)"><g><path d="M 54.015625 -80.875 L 54.015625 0 L 7.71875 0 L 7.71875 -80.875 Z M 108.15625 -59.9375 C 108.15625 -55.070312 106.757812 -50.945312 103.96875 -47.5625 C 101.1875 -44.1875 97.644531 -41.722656 93.34375 -40.171875 C 103.351562 -36.929688 108.359375 -29.882812 108.359375 -19.03125 L 108.359375 0 L 60.890625 0 L 60.890625 -80.875 L 82.03125 -80.875 C 90.769531 -80.875 97.304688 -78.898438 101.640625 -74.953125 C 105.984375 -71.003906 108.15625 -66 108.15625 -59.9375 Z M 108.15625 -59.9375 "/></g></g></g></g></g><g clip-path="url(#e5b8cf7aa1)"><path fill="#00357a" d="M 89.203125 0 L 318.582031 0 C 320.042969 0 321.5 0.0351562 322.960938 0.109375 C 324.417969 0.179688 325.875 0.285156 327.324219 0.429688 C 328.777344 0.574219 330.226562 0.75 331.671875 0.964844 C 333.117188 1.179688 334.554688 1.429688 335.984375 1.714844 C 337.417969 2 338.839844 2.320312 340.257812 2.671875 C 341.671875 3.027344 343.078125 3.417969 344.476562 3.839844 C 345.875 4.265625 347.257812 4.722656 348.632812 5.214844 C 350.007812 5.707031 351.371094 6.230469 352.71875 6.789062 C 354.066406 7.347656 355.402344 7.941406 356.722656 8.566406 C 358.042969 9.1875 359.34375 9.84375 360.632812 10.53125 C 361.921875 11.222656 363.191406 11.941406 364.441406 12.691406 C 365.695312 13.441406 366.925781 14.222656 368.140625 15.035156 C 369.355469 15.84375 370.546875 16.683594 371.722656 17.554688 C 372.894531 18.425781 374.042969 19.320312 375.171875 20.25 C 376.300781 21.175781 377.40625 22.128906 378.488281 23.109375 C 379.570312 24.089844 380.625 25.09375 381.660156 26.128906 C 382.691406 27.160156 383.699219 28.214844 384.675781 29.296875 C 385.65625 30.378906 386.613281 31.484375 387.539062 32.613281 C 388.464844 33.742188 389.363281 34.890625 390.230469 36.066406 C 391.101562 37.238281 391.941406 38.429688 392.753906 39.644531 C 393.5625 40.859375 394.34375 42.089844 395.09375 43.34375 C 395.84375 44.597656 396.566406 45.867188 397.253906 47.152344 C 397.941406 48.441406 398.597656 49.746094 399.222656 51.0625 C 399.84375 52.382812 400.4375 53.71875 400.996094 55.066406 C 401.554688 56.414062 402.078125 57.777344 402.570312 59.152344 C 403.0625 60.527344 403.519531 61.910156 403.945312 63.308594 C 404.367188 64.707031 404.757812 66.113281 405.113281 67.527344 C 405.46875 68.945312 405.785156 70.367188 406.070312 71.800781 C 406.355469 73.230469 406.605469 74.671875 406.820312 76.113281 C 407.035156 77.558594 407.214844 79.007812 407.355469 80.460938 C 407.5 81.914062 407.605469 83.367188 407.679688 84.824219 C 407.75 86.285156 407.785156 87.742188 407.785156 89.203125 L 407.785156 318.582031 C 407.785156 320.042969 407.75 321.5 407.679688 322.960938 C 407.605469 324.417969 407.5 325.875 407.355469 327.324219 C 407.214844 328.777344 407.035156 330.226562 406.820312 331.671875 C 406.605469 333.117188 406.355469 334.554688 406.070312 335.984375 C 405.785156 337.417969 405.46875 338.839844 405.113281 340.257812 C 404.757812 341.671875 404.367188 343.078125 403.945312 344.476562 C 403.519531 345.875 403.0625 347.257812 402.570312 348.632812 C 402.078125 350.007812 401.554688 351.371094 400.996094 352.71875 C 400.4375 354.066406 399.84375 355.402344 399.222656 356.722656 C 398.597656 358.042969 397.941406 359.34375 397.253906 360.632812 C 396.566406 361.921875 395.84375 363.191406 395.09375 364.441406 C 394.34375 365.695312 393.5625 366.925781 392.753906 368.140625 C 391.941406 369.355469 391.101562 370.546875 390.230469 371.722656 C 389.363281 372.894531 388.464844 374.042969 387.539062 375.171875 C 386.613281 376.300781 385.65625 377.40625 384.675781 378.488281 C 383.699219 379.570312 382.691406 380.625 381.660156 381.660156 C 380.625 382.691406 379.570312 383.699219 378.488281 384.675781 C 377.40625 385.65625 376.300781 386.613281 375.171875 387.539062 C 374.042969 388.464844 372.894531 389.363281 371.722656 390.230469 C 370.546875 391.101562 369.355469 391.941406 368.140625 392.753906 C 366.925781 393.5625 365.695312 394.34375 364.441406 395.09375 C 363.191406 395.84375 361.921875 396.566406 360.632812 397.253906 C 359.34375 397.941406 358.042969 398.597656 356.722656 399.222656 C 355.402344 399.84375 354.066406 400.4375 352.71875 400.996094 C 351.371094 401.554688 350.007812 402.078125 348.632812 402.570312 C 347.257812 403.0625 345.875 403.519531 344.476562 403.945312 C 343.078125 404.367188 341.671875 404.757812 340.257812 405.113281 C 338.839844 405.46875 337.417969 405.785156 335.984375 406.070312 C 334.554688 406.355469 333.117188 406.605469 331.671875 406.820312 C 330.226562 407.035156 328.777344 407.214844 327.324219 407.355469 C 325.875 407.5 324.417969 407.605469 322.960938 407.679688 C 321.5 407.75 320.042969 407.785156 318.582031 407.785156 L 89.203125 407.785156 C 87.742188 407.785156 86.285156 407.75 84.824219 407.679688 C 83.367188 407.605469 81.914062 407.5 80.460938 407.355469 C 79.007812 407.214844 77.558594 407.035156 76.113281 406.820312 C 74.671875 406.605469 73.230469 406.355469 71.800781 406.070312 C 70.367188 405.785156 68.945312 405.46875 67.527344 405.113281 C 66.113281 404.757812 64.707031 404.367188 63.308594 403.945312 C 61.910156 403.519531 60.527344 403.0625 59.152344 402.570312 C 57.777344 402.078125 56.414062 401.554688 55.066406 400.996094 C 53.71875 400.4375 52.382812 399.84375 51.0625 399.222656 C 49.746094 398.597656 48.441406 397.941406 47.152344 397.253906 C 45.867188 396.566406 44.597656 395.84375 43.34375 395.09375 C 42.089844 394.34375 40.859375 393.5625 39.644531 392.753906 C 38.429688 391.941406 37.238281 391.101562 36.066406 390.230469 C 34.890625 389.363281 33.742188 388.464844 32.613281 387.539062 C 31.484375 386.613281 30.378906 385.65625 29.296875 384.675781 C 28.214844 383.699219 27.160156 382.691406 26.128906 381.660156 C 25.09375 380.625 24.089844 379.570312 23.109375 378.488281 C 22.128906 377.40625 21.175781 376.300781 20.25 375.171875 C 19.320312 374.042969 18.425781 372.894531 17.554688 371.722656 C 16.683594 370.546875 15.84375 369.355469 15.035156 368.140625 C 14.222656 366.925781 13.441406 365.695312 12.691406 364.441406 C 11.941406 363.191406 11.222656 361.921875 10.53125 360.632812 C 9.84375 359.34375 9.1875 358.042969 8.566406 356.722656 C 7.941406 355.402344 7.347656 354.066406 6.789062 352.71875 C 6.230469 351.371094 5.707031 350.007812 5.214844 348.632812 C 4.722656 347.257812 4.265625 345.875 3.839844 344.476562 C 3.417969 343.078125 3.027344 341.671875 2.671875 340.257812 C 2.320312 338.839844 2 337.417969 1.714844 335.984375 C 1.429688 334.554688 1.179688 333.117188 0.964844 331.671875 C 0.75 330.226562 0.574219 328.777344 0.429688 327.324219 C 0.285156 325.875 0.179688 324.417969 0.109375 322.960938 C 0.0351562 321.5 0 320.042969 0 318.582031 L 0 89.203125 C 0 87.742188 0.0351562 86.285156 0.109375 84.824219 C 0.179688 83.367188 0.285156 81.914062 0.429688 80.460938 C 0.574219 79.007812 0.75 77.558594 0.964844 76.113281 C 1.179688 74.671875 1.429688 73.230469 1.714844 71.800781 C 2 70.367188 2.320312 68.945312 2.671875 67.527344 C 3.027344 66.113281 3.417969 64.707031 3.839844 63.308594 C 4.265625 61.910156 4.722656 60.527344 5.214844 59.152344 C 5.707031 57.777344 6.230469 56.414062 6.789062 55.066406 C 7.347656 53.71875 7.941406 52.382812 8.566406 51.0625 C 9.1875 49.746094 9.84375 48.441406 10.53125 47.152344 C 11.222656 45.867188 11.941406 44.597656 12.691406 43.34375 C 13.441406 42.089844 14.222656 40.859375 15.035156 39.644531 C 15.84375 38.429688 16.683594 37.238281 17.554688 36.066406 C 18.425781 34.890625 19.320312 33.742188 20.25 32.613281 C 21.175781 31.484375 22.128906 30.378906 23.109375 29.296875 C 24.089844 28.214844 25.09375 27.160156 26.128906 26.128906 C 27.160156 25.09375 28.214844 24.089844 29.296875 23.109375 C 30.378906 22.128906 31.484375 21.175781 32.613281 20.25 C 33.742188 19.320312 34.890625 18.425781 36.066406 17.554688 C 37.238281 16.683594 38.429688 15.84375 39.644531 15.035156 C 40.859375 14.222656 42.089844 13.441406 43.34375 12.691406 C 44.597656 11.941406 45.867188 11.222656 47.152344 10.53125 C 48.441406 9.84375 49.746094 9.1875 51.0625 8.566406 C 52.382812 7.941406 53.71875 7.347656 55.066406 6.789062 C 56.414062 6.230469 57.777344 5.707031 59.152344 5.214844 C 60.527344 4.722656 61.910156 4.265625 63.308594 3.839844 C 64.707031 3.417969 66.113281 3.027344 67.527344 2.671875 C 68.945312 2.320312 70.367188 2 71.800781 1.714844 C 73.230469 1.429688 74.671875 1.179688 76.113281 0.964844 C 77.558594 0.75 79.007812 0.574219 80.460938 0.429688 C 81.914062 0.285156 83.367188 0.179688 84.824219 0.109375 C 86.285156 0.0351562 87.742188 0 89.203125 0 Z M 89.203125 0 " fill-opacity="1" fill-rule="nonzero"/></g><path fill="#fbbf24" d="M 304.691406 188.601562 L 392.875 175.21875 L 389.246094 157.253906 L 302.78125 179.042969 Z M 304.691406 188.601562 " fill-opacity="1" fill-rule="nonzero"/><path fill="#fde68a" d="M 291.4375 151.644531 L 368.027344 105.960938 L 358.277344 91.242188 L 286.214844 143.808594 Z M 291.4375 151.644531 " fill-opacity="1" fill-rule="nonzero"/><path fill="#fbbf24" d="M 267.738281 124.4375 L 323.617188 54.859375 L 296.535156 36.699219 L 253.335938 114.753906 Z M 267.738281 124.4375 " fill-opacity="1" fill-rule="nonzero"/><path fill="#fde68a" d="M 231.101562 105.640625 L 254.867188 19.6875 L 227.660156 14.207031 L 216.574219 102.710938 Z M 231.101562 105.640625 " fill-opacity="1" fill-rule="nonzero"/><path fill="#fbbf24" d="M 187.136719 103.347656 L 172.480469 15.355469 L 159.164062 18.03125 L 180.0625 104.75 Z M 187.136719 103.347656 " fill-opacity="1" fill-rule="nonzero"/><path fill="#fde68a" d="M 151.453125 116.472656 L 105.578125 39.949219 L 92.132812 48.808594 L 144.316406 121.1875 Z M 151.453125 116.472656 " fill-opacity="1" fill-rule="nonzero"/><path fill="#fbbf24" d="M 123.164062 141.578125 L 52.566406 87.101562 L 39.121094 106.980469 L 116.027344 152.21875 Z M 123.164062 141.578125 " fill-opacity="1" fill-rule="nonzero"/><path fill="#fde68a" d="M 105.578125 176.878906 L 19.5625 153.238281 L 14.527344 177.832031 L 102.902344 190.003906 Z M 105.578125 176.878906 " fill-opacity="1" fill-rule="nonzero"/><path fill="#fbbf24" d="M 102.773438 216.636719 L 14.207031 227.785156 L 19.050781 252.636719 L 105.324219 229.890625 Z M 102.773438 216.636719 " fill-opacity="1" fill-rule="nonzero"/><path fill="#fde68a" d="M 115.519531 254.675781 L 38.167969 299.148438 L 53.585938 322.023438 L 123.738281 266.910156 Z M 115.519531 254.675781 " fill-opacity="1" fill-rule="nonzero"/><path fill="#fbbf24" d="M 144.253906 286.597656 L 92.132812 358.980469 L 104.941406 367.453125 L 151.136719 291.121094 Z M 144.253906 286.597656 " fill-opacity="1" fill-rule="nonzero"/><path fill="#fde68a" d="M 178.46875 302.589844 L 156.234375 388.988281 L 178.152344 393.320312 L 190.195312 304.882812 Z M 178.46875 302.589844 " fill-opacity="1" fill-rule="nonzero"/><path fill="#fbbf24" d="M 219.183594 304.691406 L 232.566406 392.875 L 246.519531 390.199219 L 226.640625 303.289062 Z M 219.183594 304.691406 " fill-opacity="1" fill-rule="nonzero"/><path fill="#fde68a" d="M 255.503906 291.820312 L 300.613281 368.792969 L 319.921875 355.792969 L 265.761719 284.941406 Z M 255.503906 291.820312 " fill-opacity="1" fill-rule="nonzero"/><path fill="#fbbf24" d="M 285.386719 265.125 L 356.75 318.710938 L 367.324219 303.035156 L 291.058594 256.777344 Z M 285.386719 265.125 " fill-opacity="1" fill-rule="nonzero"/><path fill="#fde68a" d="M 303.097656 227.277344 L 389.945312 247.792969 L 392.875 232.4375 L 304.691406 219.121094 Z M 303.097656 227.277344 " fill-opacity="1" fill-rule="nonzero"/><g clip-path="url(#c4ad0a8fdc)"><path stroke-linecap="butt" transform="matrix(6.371652, 0, 0, 6.371652, 0.00000765, 0.000000000000170426)" fill="none" stroke-linejoin="miter" d="M 48.000086 32.000263 C 48.000086 32.262042 47.993342 32.523822 47.980468 32.784988 C 47.967594 33.046768 47.948588 33.307935 47.92284 33.568488 C 47.897091 33.829042 47.865211 34.088369 47.826588 34.347696 C 47.788578 34.606411 47.743824 34.864512 47.692326 35.121387 C 47.641442 35.378262 47.584427 35.633911 47.520668 35.887721 C 47.456909 36.141531 47.387019 36.394114 47.310999 36.644859 C 47.234978 36.89499 47.152827 37.143895 47.064546 37.390348 C 46.976264 37.636801 46.882465 37.880802 46.781922 38.122964 C 46.681992 38.365125 46.575931 38.604221 46.46374 38.840865 C 46.352162 39.077509 46.234453 39.311701 46.110613 39.542214 C 45.987387 39.77334 45.85803 40.000788 45.723768 40.225784 C 45.588893 40.450166 45.449114 40.671483 45.303204 40.889122 C 45.157907 41.106761 45.007093 41.320721 44.851374 41.531003 C 44.695041 41.741285 44.534418 41.947889 44.368277 42.150201 C 44.202136 42.352513 44.03109 42.551147 43.85514 42.744876 C 43.679189 42.939219 43.498948 43.128656 43.313801 43.313803 C 43.128655 43.498949 42.939217 43.679191 42.744875 43.855141 C 42.551146 44.031091 42.352512 44.202137 42.1502 44.368278 C 41.947888 44.534419 41.741284 44.695043 41.531002 44.851375 C 41.32072 45.007094 41.10676 45.157908 40.889121 45.303205 C 40.671482 45.449115 40.450165 45.588894 40.225782 45.723769 C 40.000787 45.858031 39.773339 45.987388 39.542213 46.110615 C 39.311699 46.234454 39.077508 46.352163 38.840864 46.463741 C 38.60422 46.575932 38.365124 46.681993 38.122962 46.781923 C 37.880801 46.882466 37.6368 46.976265 37.390347 47.064547 C 37.143894 47.152829 36.894989 47.23498 36.644858 47.311 C 36.394113 47.38702 36.14153 47.45691 35.88772 47.520669 C 35.63391 47.583815 35.378261 47.641443 35.121386 47.692328 C 34.864511 47.743825 34.60641 47.788579 34.347695 47.826589 C 34.088368 47.865213 33.82904 47.897092 33.568487 47.922841 C 33.307933 47.94859 33.046767 47.967595 32.784987 47.980469 C 32.523821 47.993344 32.262041 48.000087 32.000261 48.000087 C 31.737869 48.000087 31.476702 47.993344 31.214922 47.980469 C 30.953143 47.967595 30.692589 47.94859 30.431423 47.922841 C 30.170869 47.897092 29.911542 47.865213 29.652214 47.826589 C 29.3935 47.788579 29.135399 47.743825 28.878524 47.692328 C 28.621649 47.641443 28.366613 47.584428 28.11219 47.520669 C 27.85838 47.45691 27.605797 47.38702 27.355665 47.311 C 27.104921 47.23498 26.856015 47.152829 26.609562 47.064547 C 26.36311 46.976265 26.119109 46.882466 25.876947 46.781923 C 25.635399 46.681993 25.39569 46.575932 25.159046 46.463741 C 24.922402 46.352163 24.688823 46.234454 24.457697 46.110615 C 24.226571 45.987388 23.999123 45.858031 23.774127 45.723769 C 23.549745 45.588894 23.328427 45.449115 23.110789 45.303205 C 22.89315 45.157908 22.679189 45.007094 22.468907 44.851375 C 22.258625 44.695043 22.052022 44.534419 21.84971 44.368278 C 21.647398 44.202137 21.449377 44.031091 21.255035 43.855141 C 21.061305 43.679191 20.871255 43.498949 20.686108 43.313803 C 20.500962 43.128656 20.32072 42.939219 20.14477 42.744876 C 19.96882 42.551147 19.797774 42.352513 19.631633 42.150201 C 19.465492 41.947889 19.304868 41.741285 19.148536 41.531003 C 18.992817 41.320721 18.842003 41.106761 18.696706 40.889122 C 18.550796 40.671483 18.411016 40.450166 18.276142 40.225784 C 18.14188 40.000788 18.012523 39.77334 17.889296 39.542214 C 17.76607 39.311701 17.648361 39.077509 17.53617 38.840865 C 17.423978 38.604221 17.317918 38.365125 17.217988 38.122964 C 17.117445 37.880802 17.023646 37.636801 16.935364 37.390348 C 16.847082 37.143895 16.764931 36.89499 16.688911 36.644859 C 16.612891 36.394114 16.543001 36.141531 16.479242 35.887721 C 16.416096 35.633911 16.358468 35.378262 16.307583 35.121387 C 16.256086 34.864512 16.211332 34.606411 16.173322 34.347696 C 16.134698 34.088369 16.102819 33.829042 16.07707 33.568488 C 16.051321 33.307935 16.032316 33.046768 16.019442 32.784988 C 16.006567 32.523822 15.999824 32.262042 15.999824 32.000263 C 15.999824 31.73787 16.006567 31.476703 16.019442 31.214924 C 16.032316 30.953144 16.051321 30.69259 16.07707 30.431424 C 16.102819 30.17087 16.134698 29.911543 16.173322 29.652216 C 16.211332 29.393501 16.256086 29.1354 16.307583 28.878525 C 16.358468 28.62165 16.416096 28.366614 16.479242 28.112191 C 16.543001 27.858381 16.612891 27.605798 16.688911 27.355666 C 16.764931 27.104922 16.847082 26.856017 16.935364 26.609564 C 17.023646 26.363111 17.117445 26.11911 17.217988 25.876949 C 17.317918 25.6354 17.423978 25.395691 17.53617 25.159047 C 17.648361 24.922403 17.76607 24.688825 17.889296 24.457698 C 18.012523 24.226572 18.14188 23.999124 18.276142 23.774128 C 18.411016 23.549746 18.550796 23.328429 18.696706 23.11079 C 18.842003 22.893151 18.992817 22.679191 19.148536 22.468909 C 19.304868 22.258627 19.465492 22.052023 19.631633 21.849711 C 19.797774 21.647399 19.96882 21.449378 20.14477 21.255036 C 20.32072 21.061307 20.500962 20.871256 20.686108 20.68611 C 20.871255 20.500963 21.061305 20.320722 21.255035 20.144771 C 21.449377 19.968821 21.647398 19.797775 21.84971 19.631634 C 22.052022 19.465493 22.258625 19.304869 22.468907 19.148537 C 22.679189 18.992818 22.89315 18.842004 23.110789 18.696707 C 23.328427 18.550797 23.549745 18.411018 23.774127 18.276143 C 23.999123 18.141881 24.226571 18.012524 24.457697 17.889298 C 24.688823 17.766071 24.922402 17.648362 25.159046 17.536171 C 25.39569 17.42398 25.635399 17.317919 25.876947 17.217989 C 26.119109 17.117446 26.36311 17.023647 26.609562 16.935365 C 26.856015 16.847083 27.104921 16.764932 27.355665 16.688912 C 27.605797 16.612892 27.85838 16.543002 28.11219 16.479243 C 28.366613 16.416097 28.621649 16.358469 28.878524 16.307584 C 29.135399 16.256087 29.3935 16.211333 29.652214 16.173323 C 29.911542 16.1347 30.170869 16.10282 30.431423 16.077071 C 30.692589 16.051322 30.953143 16.032317 31.214922 16.019443 C 31.476702 16.006568 31.737869 15.999825 32.000261 15.999825 C 32.262041 15.999825 32.523821 16.006568 32.784987 16.019443 C 33.046767 16.032317 33.307933 16.051322 33.568487 16.077071 C 33.82904 16.10282 34.088368 16.1347 34.347695 16.173323 C 34.60641 16.211333 34.864511 16.256087 35.121386 16.307584 C 35.378261 16.358469 35.63391 16.416097 35.88772 16.479243 C 36.14153 16.543002 36.394113 16.612892 36.644858 16.688912 C 36.894989 16.764932 37.143894 16.847083 37.390347 16.935365 C 37.6368 17.023647 37.880801 17.117446 38.122962 17.217989 C 38.365124 17.317919 38.60422 17.42398 38.840864 17.536171 C 39.077508 17.648362 39.311699 17.766071 39.542213 17.889298 C 39.773339 18.012524 40.000787 18.141881 40.225782 18.276143 C 40.450165 18.411018 40.671482 18.550797 40.889121 18.696707 C 41.10676 18.842004 41.32072 18.992818 41.531002 19.148537 C 41.741284 19.304869 41.947888 19.465493 42.1502 19.631634 C 42.352512 19.797775 42.551146 19.968821 42.744875 20.144771 C 42.939217 20.320722 43.128655 20.500963 43.313801 20.68611 C 43.498948 20.871256 43.679189 21.061307 43.85514 21.255036 C 44.03109 21.449378 44.202136 21.647399 44.368277 21.849711 C 44.534418 22.052023 44.695041 22.258627 44.851374 22.468909 C 45.007093 22.679191 45.157907 22.893151 45.303204 23.11079 C 45.449114 23.328429 45.588893 23.549746 45.723768 23.774128 C 45.85803 23.999124 45.987387 24.226572 46.110613 24.457698 C 46.234453 24.688825 46.352162 24.922403 46.46374 25.159047 C 46.575931 25.395691 46.681992 25.6354 46.781922 25.876949 C 46.882465 26.11911 46.976264 26.363111 47.064546 26.609564 C 47.152827 26.856017 47.234978 27.104922 47.310999 27.355666 C 47.387019 27.605798 47.456909 27.858381 47.520668 28.112191 C 47.583814 28.366614 47.641442 28.62165 47.692326 28.878525 C 47.743824 29.1354 47.788578 29.393501 47.826588 29.652216 C 47.865211 29.911543 47.897091 30.17087 47.92284 30.431424 C 47.948588 30.69259 47.967594 30.953144 47.980468 31.214924 C 47.993342 31.476703 48.000086 31.73787 48.000086 32.000263 Z M 48.000086 32.000263 " stroke="#ffffff" stroke-width="3" stroke-opacity="1" stroke-miterlimit="4"/></g></svg>