<svg xmlns="http://www.w3.org/2000/svg" xmlns:xlink="http://www.w3.org/1999/xlink" width="1774" zoomAndPan="magnify" viewBox="0 0 1330.5 320.250004" height="427" preserveAspectRatio="xMidYMid meet" version="1.0"><defs><g/><clipPath id="c5d4b68da3"><path d="M 1.304688 0 L 286.386719 0 L 286.386719 285.082031 L 1.304688 285.082031 Z M 1.304688 0 " clip-rule="nonzero"/></clipPath><clipPath id="d6d8ac0e4a"><rect x="0" width="987" y="0" height="168"/></clipPath></defs><path fill="#d97706" d="M 214.316406 131.851562 L 275.964844 122.496094 L 273.425781 109.933594 L 212.980469 125.167969 Z M 214.316406 131.851562 " fill-opacity="1" fill-rule="nonzero"/><path fill="#f59e0b" d="M 205.050781 106.015625 L 258.589844 74.078125 L 251.777344 63.789062 L 201.398438 100.535156 Z M 205.050781 106.015625 " fill-opacity="1" fill-rule="nonzero"/><path fill="#d97706" d="M 188.480469 86.996094 L 227.542969 38.351562 L 208.613281 25.65625 L 178.414062 80.222656 Z M 188.480469 86.996094 " fill-opacity="1" fill-rule="nonzero"/><path fill="#f59e0b" d="M 162.867188 73.855469 L 179.480469 13.765625 L 160.460938 9.933594 L 152.710938 71.804688 Z M 162.867188 73.855469 " fill-opacity="1" fill-rule="nonzero"/><path fill="#d97706" d="M 132.132812 72.25 L 121.886719 10.734375 L 112.574219 12.605469 L 127.1875 73.230469 Z M 132.132812 72.25 " fill-opacity="1" fill-rule="nonzero"/><path fill="#f59e0b" d="M 107.1875 81.425781 L 75.113281 27.929688 L 65.714844 34.121094 L 102.199219 84.722656 Z M 107.1875 81.425781 " fill-opacity="1" fill-rule="nonzero"/><path fill="#d97706" d="M 87.410156 98.976562 L 38.054688 60.890625 L 28.65625 74.789062 L 82.417969 106.414062 Z M 87.410156 98.976562 " fill-opacity="1" fill-rule="nonzero"/><path fill="#f59e0b" d="M 75.113281 123.65625 L 14.980469 107.128906 L 11.460938 124.324219 L 73.242188 132.832031 Z M 75.113281 123.65625 " fill-opacity="1" fill-rule="nonzero"/><path fill="#d97706" d="M 73.15625 151.449219 L 11.238281 159.246094 L 14.625 176.617188 L 74.9375 160.714844 Z M 73.15625 151.449219 " fill-opacity="1" fill-rule="nonzero"/><path fill="#f59e0b" d="M 82.0625 178.042969 L 27.988281 209.132812 L 38.765625 225.125 L 87.808594 186.59375 Z M 82.0625 178.042969 " fill-opacity="1" fill-rule="nonzero"/><path fill="#d97706" d="M 102.152344 200.359375 L 65.714844 250.960938 L 74.667969 256.886719 L 106.964844 203.523438 Z M 102.152344 200.359375 " fill-opacity="1" fill-rule="nonzero"/><path fill="#f59e0b" d="M 126.074219 211.539062 L 110.527344 271.941406 L 125.851562 274.972656 L 134.269531 213.144531 Z M 126.074219 211.539062 " fill-opacity="1" fill-rule="nonzero"/><path fill="#d97706" d="M 154.535156 213.011719 L 163.890625 274.660156 L 173.644531 272.789062 L 159.75 212.03125 Z M 154.535156 213.011719 " fill-opacity="1" fill-rule="nonzero"/><path fill="#f59e0b" d="M 179.925781 204.011719 L 211.464844 257.820312 L 224.960938 248.734375 L 187.097656 199.203125 Z M 179.925781 204.011719 " fill-opacity="1" fill-rule="nonzero"/><path fill="#d97706" d="M 200.816406 185.347656 L 250.707031 222.808594 L 258.101562 211.851562 L 204.78125 179.511719 Z M 200.816406 185.347656 " fill-opacity="1" fill-rule="nonzero"/><path fill="#f59e0b" d="M 213.203125 158.890625 L 273.914062 173.230469 L 275.964844 162.496094 L 214.316406 153.1875 Z M 213.203125 158.890625 " fill-opacity="1" fill-rule="nonzero"/><g clip-path="url(#c5d4b68da3)"><path stroke-linecap="butt" transform="matrix(4.454412, 0, 0, 4.454412, 1.304898, 0.00000997664)" fill="none" stroke-linejoin="miter" d="M 48.000117 32.0004 C 48.000117 32.261728 47.993978 32.523933 47.980824 32.785261 C 47.96767 33.046589 47.948378 33.307917 47.922946 33.568368 C 47.897515 33.828819 47.865068 34.088393 47.826483 34.347967 C 47.788775 34.606664 47.744051 34.864484 47.692311 35.121428 C 47.641449 35.378371 47.584448 35.63356 47.520431 35.887873 C 47.457291 36.141308 47.387136 36.393867 47.310843 36.644672 C 47.235426 36.895476 47.152993 37.14365 47.064423 37.39007 C 46.976729 37.63649 46.882019 37.881156 46.782048 38.123192 C 46.682077 38.365227 46.575967 38.603755 46.463719 38.840528 C 46.351471 39.077302 46.233961 39.311445 46.110312 39.54208 C 45.987541 39.773592 45.858631 40.000719 45.723582 40.225216 C 45.58941 40.450589 45.4491 40.671578 45.303528 40.889059 C 45.157956 41.10654 45.007122 41.320513 44.851027 41.530979 C 44.694932 41.741444 44.534452 41.947525 44.367833 42.150098 C 44.202092 42.352671 44.031089 42.55086 43.854824 42.744663 C 43.679436 42.939344 43.498786 43.128763 43.313752 43.313797 C 43.128718 43.498831 42.939299 43.679481 42.744618 43.854869 C 42.550815 44.031134 42.352626 44.202137 42.150053 44.367878 C 41.94748 44.534497 41.741399 44.694977 41.530934 44.851072 C 41.320468 45.007167 41.106495 45.158001 40.889014 45.303573 C 40.671533 45.449145 40.450544 45.589455 40.226048 45.723627 C 40.000674 45.858676 39.773547 45.987586 39.542035 46.110357 C 39.3114 46.234006 39.077257 46.351516 38.840483 46.463764 C 38.604586 46.576012 38.365182 46.682122 38.123147 46.782093 C 37.881111 46.882064 37.636445 46.976774 37.390025 47.064468 C 37.143605 47.153038 36.895431 47.234594 36.644627 47.310888 C 36.393822 47.387181 36.141263 47.45646 35.887828 47.520476 C 35.633515 47.584493 35.378326 47.641494 35.121382 47.692356 C 34.864439 47.743219 34.606619 47.78882 34.347922 47.826528 C 34.088348 47.865113 33.828774 47.89756 33.568323 47.922991 C 33.307871 47.948423 33.046543 47.967715 32.785215 47.980869 C 32.523887 47.993147 32.261683 48.000162 32.000355 48.000162 C 31.73815 48.000162 31.476822 47.993147 31.214617 47.980869 C 30.953289 47.967715 30.691961 47.948423 30.43151 47.922991 C 30.171059 47.89756 29.911485 47.865113 29.65191 47.826528 C 29.393213 47.78882 29.135393 47.743219 28.87845 47.692356 C 28.621506 47.641494 28.366317 47.584493 28.112005 47.520476 C 27.858569 47.45646 27.60601 47.387181 27.355206 47.310888 C 27.105278 47.234594 26.856227 47.153038 26.609807 47.064468 C 26.363387 46.976774 26.118721 46.882064 25.876686 46.782093 C 25.635527 46.682122 25.396123 46.576012 25.159349 46.463764 C 24.922575 46.351516 24.688432 46.234006 24.457797 46.110357 C 24.226285 45.987586 23.999158 45.858676 23.774661 45.723627 C 23.550165 45.589455 23.328299 45.449145 23.110818 45.303573 C 22.893337 45.158001 22.679364 45.007167 22.468898 44.851072 C 22.258433 44.694977 22.052352 44.534497 21.849779 44.367878 C 21.647206 44.202137 21.449018 44.031134 21.255214 43.854869 C 21.06141 43.679481 20.871114 43.498831 20.68608 43.313797 C 20.501046 43.128763 20.320396 42.939344 20.145009 42.744663 C 19.968744 42.55086 19.79774 42.352671 19.631999 42.150098 C 19.46538 41.947525 19.3049 41.741444 19.148805 41.530979 C 18.99271 41.320513 18.841876 41.10654 18.696304 40.889059 C 18.550732 40.671578 18.411299 40.450589 18.27625 40.225216 C 18.142079 40.000719 18.012291 39.773592 17.88952 39.54208 C 17.765871 39.311445 17.648362 39.077302 17.536113 38.840528 C 17.423865 38.603755 17.317755 38.365227 17.217784 38.123192 C 17.117813 37.881156 17.023104 37.63649 16.93541 37.39007 C 16.846839 37.14365 16.765283 36.895476 16.68899 36.644672 C 16.612696 36.393867 16.543418 36.141308 16.479401 35.887873 C 16.416261 35.63356 16.358383 35.378371 16.307521 35.121428 C 16.256658 34.864484 16.211935 34.606664 16.173349 34.347967 C 16.134764 34.088393 16.102317 33.828819 16.076886 33.568368 C 16.051455 33.307917 16.032162 33.046589 16.019008 32.785261 C 16.006731 32.523933 15.999715 32.261728 15.999715 32.0004 C 15.999715 31.738195 16.006731 31.476867 16.019008 31.214662 C 16.032162 30.953334 16.051455 30.692006 16.076886 30.431555 C 16.102317 30.171104 16.134764 29.91153 16.173349 29.651955 C 16.211935 29.393258 16.256658 29.135438 16.307521 28.878495 C 16.358383 28.621551 16.416261 28.366362 16.479401 28.11205 C 16.543418 27.858614 16.612696 27.606055 16.68899 27.355251 C 16.765283 27.104446 16.846839 26.856272 16.93541 26.609852 C 17.023104 26.363432 17.117813 26.118766 17.217784 25.876731 C 17.317755 25.635572 17.423865 25.396168 17.536113 25.159394 C 17.648362 24.92262 17.765871 24.688477 17.88952 24.457842 C 18.012291 24.22633 18.142079 23.999203 18.27625 23.774706 C 18.411299 23.549333 18.550732 23.328344 18.696304 23.110863 C 18.841876 22.893382 18.99271 22.679409 19.148805 22.468943 C 19.3049 22.258478 19.46538 22.052397 19.631999 21.849824 C 19.79774 21.647251 19.968744 21.449063 20.145009 21.255259 C 20.320396 21.061455 20.501046 20.87116 20.68608 20.686125 C 20.871114 20.501091 21.06141 20.320441 21.255214 20.145054 C 21.449018 19.968789 21.647206 19.797786 21.849779 19.632044 C 22.052352 19.465425 22.258433 19.304945 22.468898 19.14885 C 22.679364 18.992755 22.893337 18.841921 23.110818 18.696349 C 23.328299 18.550777 23.550165 18.411344 23.774661 18.276295 C 23.999158 18.142124 24.226285 18.012337 24.457797 17.889565 C 24.688432 17.765917 24.922575 17.648407 25.159349 17.536158 C 25.396123 17.42391 25.635527 17.3178 25.876686 17.217829 C 26.118721 17.117858 26.363387 17.023149 26.609807 16.935455 C 26.856227 16.846884 27.105278 16.765328 27.355206 16.689035 C 27.60601 16.612741 27.858569 16.543463 28.112005 16.479446 C 28.366317 16.416307 28.621506 16.358429 28.87845 16.307566 C 29.135393 16.256704 29.393213 16.21198 29.65191 16.173394 C 29.911485 16.134809 30.171059 16.102362 30.43151 16.076931 C 30.691961 16.0515 30.953289 16.032207 31.214617 16.019053 C 31.476822 16.006776 31.73815 15.99976 32.000355 15.99976 C 32.261683 15.99976 32.523887 16.006776 32.785215 16.019053 C 33.046543 16.032207 33.307871 16.0515 33.568323 16.076931 C 33.828774 16.102362 34.088348 16.134809 34.347922 16.173394 C 34.606619 16.21198 34.864439 16.256704 35.121382 16.307566 C 35.378326 16.358429 35.633515 16.416307 35.887828 16.479446 C 36.141263 16.543463 36.393822 16.612741 36.644627 16.689035 C 36.895431 16.765328 37.143605 16.846884 37.390025 16.935455 C 37.636445 17.023149 37.881111 17.117858 38.123147 17.217829 C 38.365182 17.3178 38.604586 17.42391 38.840483 17.536158 C 39.077257 17.648407 39.3114 17.765917 39.542035 17.889565 C 39.773547 18.012337 40.000674 18.142124 40.226048 18.276295 C 40.450544 18.411344 40.671533 18.550777 40.889014 18.696349 C 41.106495 18.841921 41.320468 18.992755 41.530934 19.14885 C 41.741399 19.304945 41.94748 19.465425 42.150053 19.632044 C 42.352626 19.797786 42.550815 19.968789 42.744618 20.145054 C 42.939299 20.320441 43.128718 20.501091 43.313752 20.686125 C 43.498786 20.87116 43.679436 21.061455 43.854824 21.255259 C 44.031089 21.449063 44.202092 21.647251 44.367833 21.849824 C 44.534452 22.052397 44.694932 22.258478 44.851027 22.468943 C 45.007122 22.679409 45.157956 22.893382 45.303528 23.110863 C 45.4491 23.328344 45.58941 23.549333 45.723582 23.774706 C 45.858631 23.999203 45.987541 24.22633 46.110312 24.457842 C 46.233961 24.688477 46.351471 24.92262 46.463719 25.159394 C 46.575967 25.396168 46.682077 25.635572 46.782048 25.876731 C 46.882019 26.118766 46.976729 26.363432 47.064423 26.609852 C 47.152993 26.856272 47.235426 27.104446 47.310843 27.355251 C 47.387136 27.606055 47.457291 27.858614 47.520431 28.11205 C 47.584448 28.366362 47.641449 28.621551 47.692311 28.878495 C 47.744051 29.135438 47.788775 29.393258 47.826483 29.651955 C 47.865068 29.91153 47.897515 30.171104 47.922946 30.431555 C 47.948378 30.692006 47.96767 30.953334 47.980824 31.214662 C 47.993978 31.476867 48.000117 31.738195 48.000117 32.0004 Z M 48.000117 32.0004 " stroke="#1b3a5c" stroke-width="3" stroke-opacity="1" stroke-miterlimit="4"/></g><g transform="matrix(1, 0, 0, 1, 288, 84)"><g clip-path="url(#d6d8ac0e4a)"><g fill="#00357a" fill-opacity="1"><g transform="translate(1.265421, 129.121416)"><g><path d="M 84.765625 -126.90625 L 84.765625 0 L 12.109375 0 L 12.109375 -126.90625 Z M 169.703125 -94.0625 C 169.703125 -86.425781 167.515625 -79.953125 163.140625 -74.640625 C 158.773438 -69.335938 153.222656 -65.46875 146.484375 -63.03125 C 162.179688 -57.945312 170.03125 -46.890625 170.03125 -29.859375 L 170.03125 0 L 95.546875 0 L 95.546875 -126.90625 L 128.734375 -126.90625 C 142.441406 -126.90625 152.695312 -123.804688 159.5 -117.609375 C 166.300781 -111.421875 169.703125 -103.570312 169.703125 -94.0625 Z M 169.703125 -94.0625 "/></g></g></g><g fill="#00357a" fill-opacity="1"><g transform="translate(175.762874, 129.121416)"><g><path d="M 37 -93.734375 C 42.300781 -93.734375 46.773438 -91.878906 50.421875 -88.171875 C 54.078125 -84.460938 55.90625 -80.007812 55.90625 -74.8125 C 55.90625 -69.613281 54.078125 -65.160156 50.421875 -61.453125 C 46.773438 -57.753906 42.300781 -55.90625 37 -55.90625 C 31.6875 -55.90625 27.203125 -57.753906 23.546875 -61.453125 C 19.898438 -65.160156 18.078125 -69.613281 18.078125 -74.8125 C 18.078125 -80.125 19.929688 -84.601562 23.640625 -88.25 C 27.347656 -91.90625 31.800781 -93.734375 37 -93.734375 Z M 105.5 -85.59375 C 113.46875 -78.519531 117.453125 -68.125 117.453125 -54.40625 L 117.453125 0 L 66.1875 0 L 66.1875 -93.734375 L 76.96875 -93.734375 C 82.164062 -93.734375 87.472656 -93.039062 92.890625 -91.65625 C 98.316406 -90.269531 102.519531 -88.25 105.5 -85.59375 Z M 55.40625 -57.390625 L 55.40625 0 L 37.484375 0 C 32.179688 0 27.175781 -1.128906 22.46875 -3.390625 C 17.769531 -5.660156 14.007812 -9.007812 11.1875 -13.4375 C 8.375 -17.863281 6.96875 -23.117188 6.96875 -29.203125 C 6.96875 -39.921875 11.832031 -48.597656 21.5625 -55.234375 C 24.101562 -53.359375 26.5625 -51.945312 28.9375 -51 C 31.320312 -50.0625 34.117188 -49.59375 37.328125 -49.59375 C 40.640625 -49.59375 43.707031 -50.171875 46.53125 -51.328125 C 49.351562 -52.492188 52.3125 -54.515625 55.40625 -57.390625 Z M 55.40625 -57.390625 "/></g></g></g><g fill="#00357a" fill-opacity="1"><g transform="translate(300.166951, 129.121416)"><g><path d="M 33.84375 -127.734375 C 42.03125 -127.734375 48.554688 -126.40625 53.421875 -123.75 C 58.285156 -121.09375 60.71875 -117.722656 60.71875 -113.640625 C 60.71875 -109.765625 58.335938 -106.554688 53.578125 -104.015625 C 48.828125 -101.472656 42.632812 -100.203125 35 -100.203125 C 27.59375 -100.203125 21.59375 -101.441406 17 -103.921875 C 12.414062 -106.410156 10.125 -109.757812 10.125 -113.96875 C 10.125 -118.0625 12.304688 -121.378906 16.671875 -123.921875 C 21.035156 -126.460938 26.757812 -127.734375 33.84375 -127.734375 Z M 60.71875 -93.734375 L 60.71875 0 L 10.125 0 L 10.125 -93.734375 Z M 60.71875 -93.734375 "/></g></g></g><g fill="#00357a" fill-opacity="1"><g transform="translate(370.994341, 129.121416)"><g><path d="M 4.984375 -46.453125 C 4.984375 -54.191406 6.75 -61.707031 10.28125 -69 C 13.820312 -76.300781 19.570312 -82.359375 27.53125 -87.171875 C 35.5 -91.984375 45.785156 -94.390625 58.390625 -94.390625 L 58.390625 0.828125 C 46.117188 0.828125 35.972656 -1.492188 27.953125 -6.140625 C 19.929688 -10.785156 14.097656 -16.703125 10.453125 -23.890625 C 6.804688 -31.078125 4.984375 -38.597656 4.984375 -46.453125 Z M 122.921875 -46.453125 C 122.921875 -38.597656 121.09375 -31.078125 117.4375 -23.890625 C 113.789062 -16.703125 107.957031 -10.785156 99.9375 -6.140625 C 91.925781 -1.492188 81.785156 0.828125 69.515625 0.828125 L 69.515625 -94.390625 C 82.117188 -94.390625 92.398438 -91.984375 100.359375 -87.171875 C 108.328125 -82.359375 114.078125 -76.300781 117.609375 -69 C 121.148438 -61.707031 122.921875 -54.191406 122.921875 -46.453125 Z M 122.921875 -46.453125 "/></g></g></g><g fill="#00357a" fill-opacity="1"><g transform="translate(498.881727, 129.121416)"><g><path d="M 83.9375 -126.90625 L 83.9375 0 L 11.28125 0 L 11.28125 -126.90625 Z M 166.546875 -82.453125 C 166.546875 -73.265625 164.28125 -65.296875 159.75 -58.546875 C 155.21875 -51.804688 149.382812 -46.664062 142.25 -43.125 C 135.113281 -39.59375 127.785156 -37.828125 120.265625 -37.828125 L 94.5625 -37.828125 L 94.5625 -126.90625 L 117.78125 -126.90625 C 126.738281 -126.90625 134.945312 -124.992188 142.40625 -121.171875 C 149.875 -117.359375 155.765625 -112.078125 160.078125 -105.328125 C 164.390625 -98.585938 166.546875 -90.960938 166.546875 -82.453125 Z M 166.546875 -82.453125 "/></g></g></g><g fill="#00357a" fill-opacity="1"><g transform="translate(666.412523, 129.121416)"><g><path d="M 84.609375 -126.90625 L 84.609375 0 L 11.9375 0 L 11.9375 -126.90625 Z M 169.375 -63.203125 C 169.375 -51.703125 166.441406 -41.113281 160.578125 -31.4375 C 154.722656 -21.757812 146.957031 -14.097656 137.28125 -8.453125 C 127.601562 -2.816406 117.453125 0 106.828125 0 L 95.390625 0 L 95.390625 -126.90625 L 105.171875 -126.90625 C 115.785156 -126.90625 126.039062 -124.140625 135.9375 -118.609375 C 145.84375 -113.078125 153.890625 -105.414062 160.078125 -95.625 C 166.273438 -85.84375 169.375 -75.035156 169.375 -63.203125 Z M 169.375 -63.203125 "/></g></g></g><g fill="#00357a" fill-opacity="1"><g transform="translate(837.426703, 129.121416)"><g><path d="M 143.65625 -126.90625 L 143.65625 -78.46875 L 133.203125 -86.09375 L 133.203125 -39.3125 L 84.765625 -62.546875 L 84.765625 0 L 11.78125 0 L 11.78125 -126.90625 Z M 131.21875 -87.75 L 85.265625 -122.921875 L 84.765625 -122.921875 L 84.765625 -64.203125 Z M 131.21875 -87.75 "/></g></g></g></g></g></svg>