<?xml version="1.0"?>

<svg xmlns="http://www.w3.org/2000/svg" style="display:none" aria-hidden="true">
  <symbol id="rp-icon-bolt-filled" viewBox="0 0 20 20">
    <path class="rp-part g-pulse" style="transform-origin:9.5px 10px;--ps:1.12" d="M11.5 2 5 11h4l-1.5 7L14 9h-4l1.5-7Z"></path>
  </symbol>

  <symbol id="rp-icon-bolt-outline" viewBox="0 0 20 20">
    <path class="rp-part g-pulse" style="transform-origin:9.5px 10px;--ps:1.12" d="M11.5 2 5 11h4l-1.5 7L14 9h-4l1.5-7Z"></path>
  </symbol>

  <symbol id="rp-icon-open" viewBox="0 0 20 20">
    <path class="rp-part g-nudge" style="--ny:-1.5px" d="M3 4.5 L7 4.5 L8.5 6.5 L17 6.5 L17 16 L3 16 Z"></path>
  </symbol>

  <symbol id="rp-icon-save" viewBox="0 0 20 20">
    <path class="rp-part g-nudge" style="--ny:1.5px" d="M3.5 3.5h10l3 3v10h-13v-13Z"></path>
    <path class="rp-part" d="M6.5 3.5v4h6v-4M6.5 16.5v-5h7v5"></path>
  </symbol>

  <symbol id="rp-icon-print" viewBox="0 0 20 20">
    <path class="rp-part" d="M5.5 7V2.5h9V7M5.5 14.5h-2v-7.5h13v7.5h-2"></path>
    <path class="rp-part g-nudge" style="--ny:2px" d="M5.5 12.5h9v5h-9v-5Z"></path>
  </symbol>

  <symbol id="rp-icon-undo" viewBox="0 0 20 20">
    <path class="rp-part g-nudge" style="--nx:-1.5px" d="M7 4 3.5 7.5 7 11"></path>
    <path class="rp-part" d="M3.5 7.5h8a5 5 0 0 1 0 10H8"></path>
  </symbol>

  <symbol id="rp-icon-select-text" viewBox="0 0 20 20">
    <path class="rp-part" d="M4 4.5h12M10 4.5v11"></path>
    <path class="rp-part g-nudge" style="--nx:2px" d="M7.5 15.5h5"></path>
  </symbol>

  <symbol id="rp-icon-highlight" viewBox="0 0 20 20">
    <path class="rp-part g-nudge" style="--nx:-1.2px;--ny:1.2px" d="m12.5 3.5 4 4-8 8h-4v-4l8-8Z"></path>
    <path class="rp-part" d="M3.5 17.5h13"></path>
  </symbol>

  <symbol id="rp-icon-underline" viewBox="0 0 20 20">
    <path class="rp-part" d="M6 3.5v6a4 4 0 0 0 8 0v-6"></path>
    <path class="rp-part g-nudge" style="--ny:1.2px" d="M4.5 17h11"></path>
  </symbol>

  <symbol id="rp-icon-strikethrough" viewBox="0 0 20 20">
    <path class="rp-part" d="M14.5 4.5h-5a3 3 0 0 0-1.2 5.75l3.4 1.5a3 3 0 0 1-1.2 5.75h-5"></path>
    <path class="rp-part g-nudge" style="--nx:1.2px" d="M4 10.5h12"></path>
  </symbol>

  <symbol id="rp-icon-edit" viewBox="0 0 20 20">
    <path class="rp-part g-nudge" style="--nx:-1.2px;--ny:1.2px" d="m12.5 3.5 4 4-9 9h-4v-4l9-9Z"></path>
  </symbol>

  <symbol id="rp-icon-organize" viewBox="0 0 20 20">
    <rect class="rp-part g-pulse" style="transform-origin:6.25px 7px;--ps:1.06" x="3" y="3" width="6.5" height="8"></rect>
    <rect class="rp-part" x="11" y="6" width="6" height="8"></rect>
  </symbol>

  <symbol id="rp-icon-comment" viewBox="0 0 20 20">
    <path class="rp-part g-pulse" style="transform-origin:10px 9px;--ps:1.1" d="M3.5 4.5h13v8.5h-7L6 16.5v-3.5H3.5v-8.5Z"></path>
  </symbol>

  <symbol id="rp-icon-comment-marker" viewBox="0 0 20 20">
    <path class="rp-part g-nudge" style="--ny:-2px" d="M3.5 4.5h13v8.5h-7L6 16.5v-3.5H3.5v-8.5Z"></path>
  </symbol>

  <symbol id="rp-icon-scale" viewBox="0 0 20 20">
    <path class="rp-part" d="M10 3v14M5 5.5h10M7 17h6"></path>
    <path class="rp-part g-nudge" style="--ny:1.5px" d="M5.5 5.5 3 10.5 5.5 13 8 10.5 5.5 5.5Z"></path>
    <path class="rp-part g-nudge" style="--ny:-1.5px" d="M14.5 5.5 12 10.5 14.5 13 17 10.5 14.5 5.5Z"></path>
  </symbol>

  <symbol id="rp-icon-combine-exhibits" viewBox="0 0 20 20">
    <rect class="rp-part" x="3" y="4" width="9" height="12"></rect>
    <path class="rp-part g-nudge" style="--nx:1.2px" d="M12 7h4.5v9H7.5"></path>
    <path class="rp-part" d="M5.5 7.5h4M5.5 10h4"></path>
  </symbol>

  <symbol id="rp-icon-ocr-search" viewBox="0 0 20 20">
    <circle class="rp-part" cx="9" cy="9" r="5.5"></circle>
    <path class="rp-part" d="m13.5 13.5 3.5 3.5"></path>
    <path class="rp-part g-pulse" style="transform-origin:9px 9px;--ps:1.25" d="M6.5 9h5M9 6.5v5"></path>
  </symbol>

  <symbol id="rp-icon-redact" viewBox="0 0 20 20">
    <path class="rp-part" style="opacity:.45" d="M4 6h12M4 10h5M12 10h4M4 14h8"></path>
    <rect class="rp-part rp-redact-bar g-nudge" style="--nx:-1.5px" x="9.5" y="8.5" width="3" height="3"></rect>
  </symbol>

  <symbol id="rp-icon-bates" viewBox="0 0 20 20">
    <path class="rp-part g-squash" style="transform-origin:10px 17.5px;--sy:0.8" d="M4 15V5M8 15V5M12 15V5M16 15V5M4 17.5h12"></path>
  </symbol>

  <symbol id="rp-icon-shield-check" viewBox="0 0 20 20">
    <path class="rp-part" d="M10 2.5 L4 5 L4 10 L10 17.5 L16 10 L16 5 Z"></path>
    <path class="rp-part g-draw" style="--dash:10" d="m7.5 10 1.8 1.8L13 8.2"></path>
  </symbol>

  <symbol id="rp-icon-shield-check-bare" viewBox="0 0 20 20">
    <path class="rp-part" d="M10 2.5 L4 5 L4 10 L10 17.5 L16 10 L16 5 Z"></path>
  </symbol>

  <symbol id="rp-icon-scrub-metadata" viewBox="0 0 20 20">
    <path class="rp-part" d="M15.5 8.5v-4h-11v11h4"></path>
    <path class="rp-part g-nudge" style="--nx:1px;--ny:-1px" d="m9.5 9.5 7 2.5-3 1-1 3-3-6.5Z"></path>
  </symbol>

  <symbol id="rp-icon-chevron-left" viewBox="0 0 20 20">
    <path class="rp-part g-nudge" style="--nx:-1.5px" d="m12 4-6 6 6 6"></path>
  </symbol>

  <symbol id="rp-icon-chevron-right" viewBox="0 0 20 20">
    <path class="rp-part g-nudge" style="--nx:1.5px" d="m8 4 6 6-6 6"></path>
  </symbol>

  <symbol id="rp-icon-chevron-down" viewBox="0 0 20 20">
    <path class="rp-part g-nudge" style="--ny:1.5px" d="m5 8 5 5 5-5"></path>
  </symbol>

  <symbol id="rp-icon-search" viewBox="0 0 20 20">
    <circle class="rp-part g-pulse" style="transform-origin:9px 9px;--ps:1.15" cx="9" cy="9" r="5.5"></circle>
    <path class="rp-part" d="m13.5 13.5 3.5 3.5"></path>
  </symbol>

  <symbol id="rp-icon-help" viewBox="0 0 20 20">
    <circle class="rp-part" cx="10" cy="10" r="7"></circle>
    <path class="rp-part" d="M7.8 7.8a2.4 2.4 0 0 1 4.6.8c0 1.9-2.4 1.9-2.4 3.7"></path>
    <path class="rp-part g-pulse" style="transform-origin:10px 15px;--ps:1.2" d="M10 15h.01"></path>
  </symbol>

  <symbol id="rp-icon-minus" viewBox="0 0 20 20">
    <path class="rp-part g-pulse" style="transform-origin:10px 10px;--ps:.75" d="M5 10h10"></path>
  </symbol>

  <symbol id="rp-icon-plus" viewBox="0 0 20 20">
    <path class="rp-part g-pulse" style="transform-origin:10px 10px;--ps:1.18" d="M10 5v10M5 10h10"></path>
  </symbol>

  <symbol id="rp-icon-check" viewBox="0 0 20 20">
    <path class="rp-part rp-heavy g-draw" style="--dash:20" d="M4 10.5 8 14.5 16 5.5"></path>
  </symbol>

  <symbol id="rp-icon-rotate" viewBox="0 0 20 20">
    <g class="g-spin" style="transform-origin:10px 10px">
    <path class="rp-part" d="M15.5 7.5A6 6 0 1 0 16 12"></path>
    <path class="rp-part" d="M15.5 3.5v4h-4"></path>
    </g>
  </symbol>

  <symbol id="rp-icon-delete" viewBox="0 0 20 20">
    <path class="rp-part" d="M4 6h12"></path>
    <path class="rp-part g-nudge" style="--ny:-1.3px" d="M8 6V4.5h4V6"></path>
    <path class="rp-part" d="M6.5 6.5 7 16h6l.5-9.5"></path>
    <path class="rp-part" d="M9 9v4"></path>
    <path class="rp-part" d="M11 9v4"></path>
  </symbol>

  <symbol id="rp-icon-arrow-up" viewBox="0 0 20 20">
    <path class="rp-part g-nudge" style="--ny:-1.5px" d="m10 4 5 5"></path>
    <path class="rp-part g-nudge" style="--ny:-1.5px" d="m10 4-5 5"></path>
    <path class="rp-part g-nudge" style="--ny:-1.5px" d="M10 4v12"></path>
  </symbol>

  <symbol id="rp-icon-arrow-down" viewBox="0 0 20 20">
    <path class="rp-part g-nudge" style="--ny:1.5px" d="m10 16 5-5"></path>
    <path class="rp-part g-nudge" style="--ny:1.5px" d="m10 16-5-5"></path>
    <path class="rp-part g-nudge" style="--ny:1.5px" d="M10 4v12"></path>
  </symbol>

  <symbol id="rp-icon-drag-handle" viewBox="0 0 20 20">
    <g class="g-pulse" style="transform-origin:10px 10px;--ps:1.15">
    <rect class="rp-part" x="6.2" y="4.7" width="1.6" height="1.6"></rect>
    <rect class="rp-part" x="12.2" y="4.7" width="1.6" height="1.6"></rect>
    <rect class="rp-part" x="6.2" y="9.2" width="1.6" height="1.6"></rect>
    <rect class="rp-part" x="12.2" y="9.2" width="1.6" height="1.6"></rect>
    <rect class="rp-part" x="6.2" y="13.7" width="1.6" height="1.6"></rect>
    <rect class="rp-part" x="12.2" y="13.7" width="1.6" height="1.6"></rect>
    </g>
  </symbol>

  <symbol id="rp-icon-slip-sheet" viewBox="0 0 20 20">
    <path class="rp-part" d="M6 3.5h6l3 3v10H6z"></path>
    <path class="rp-part g-nudge" style="--nx:1px;--ny:-1px" d="M12 3.5v3h3"></path>
    <path class="rp-part" d="M8 10h4M8 12.5h3"></path>
  </symbol>

  <symbol id="rp-icon-split" viewBox="0 0 20 20">
    <path class="rp-part g-nudge" style="--nx:-1.2px" d="M5 4h4v12H5z"></path>
    <path class="rp-part g-nudge" style="--nx:1.2px" d="M11 4h4v12h-4z"></path>
    <path class="rp-part" d="M10 6v8"></path>
  </symbol>

  <symbol id="rp-icon-extract" viewBox="0 0 20 20">
    <path class="rp-part" d="M5 3.5h8l2 2v11H5z"></path>
    <path class="rp-part" d="M13 3.5v2h2"></path>
    <path class="rp-part g-nudge" style="--ny:1.3px" d="M9.5 8v6M7 11.5l2.5 2.5 2.5-2.5"></path>
  </symbol>

  <symbol id="rp-icon-insert" viewBox="0 0 20 20">
    <path class="rp-part" d="M5 3.5h6l3 3v10H5z"></path>
    <path class="rp-part" d="M11 3.5v3h3"></path>
    <path class="rp-part g-pulse" style="transform-origin:9.5px 11px;--ps:1.2" d="M9.5 8.5v5M7 11h5"></path>
  </symbol>

  <symbol id="rp-icon-crop" viewBox="0 0 20 20">
    <path class="rp-part g-nudge" style="--nx:.8px;--ny:-.8px" d="M6 3.5v10.5h10.5"></path>
    <path class="rp-part g-nudge" style="--nx:-.8px;--ny:.8px" d="M3.5 6H14v10.5"></path>
    <path class="rp-part g-nudge" style="--nx:-.8px;--ny:-.8px" d="M8.5 8.5H14V14"></path>
  </symbol>

  <symbol id="rp-icon-sensitive-scan" viewBox="0 0 20 20">
    <path class="rp-part" d="M15 8V3.5H4.5v11h5"></path>
    <path class="rp-part" style="opacity:.45" d="M6.5 6.5h5.5"></path>
    <circle class="rp-part g-pulse" style="transform-origin:13.5px 12.5px;--ps:1.2" cx="13.5" cy="12.5" r="3.2"></circle>
    <path class="rp-part g-nudge" style="--nx:1.2px;--ny:1.2px" d="m15.8 14.8 2.2 2.2"></path>
  </symbol>

  <symbol id="rp-icon-lock" viewBox="0 0 20 20">
    <rect class="rp-part" x="4.5" y="9" width="11" height="7.5" rx="1"></rect>
    <path class="rp-part g-nudge" style="--ny:-2px" d="M7 9V6.5a3 3 0 0 1 6 0V9"></path>
    <path class="rp-part g-pulse" style="transform-origin:10px 12.5px;--ps:1.3" d="M10 11.5v2"></path>
  </symbol>

  <symbol id="rp-icon-wrench" viewBox="0 0 20 20">
    <path class="rp-part" d="M6.5 13.5 13.5 6.5"></path>
    <path class="rp-part g-nudge" style="--nx:1px;--ny:-1px" d="M12 5.2 14.7 2.8 16.5 4.6 14.1 7.3"></path>
    <path class="rp-part g-nudge" style="--nx:-1px;--ny:1px" d="M8 14.8 5.3 17.2 3.5 15.4 5.9 12.7"></path>
  </symbol>

  <symbol id="rp-icon-production-set" viewBox="0 0 20 20">
    <path class="rp-part" d="M8 3.5h6v10H8z"></path>
    <path class="rp-part g-nudge" style="--nx:-1.4px;--ny:1.4px" d="M6 5.5h6v10H6z"></path>
    <rect class="rp-part g-nudge" style="--nx:-2.8px;--ny:2.8px" x="4" y="7.5" width="6" height="10"></rect>
  </symbol>

  <symbol id="rp-icon-page-numbers" viewBox="0 0 20 20">
    <path class="rp-part" d="M5 3.5h6l3 3v10H5Z"></path>
    <path class="rp-part" d="M11 3.5v3h3"></path>
    <path class="rp-part g-pulse" style="transform-origin:9.5px 14.3px;--ps:1.18" d="M8.3 12.8v3M10.7 12.8v3M7.6 13.8h4.8M7.6 15.4h4.8"></path>
  </symbol>

  <symbol id="rp-icon-table-of-authorities" viewBox="0 0 20 20">
    <path class="rp-part g-nudge" style="--nx:-1px" d="M10 6 4 4.5v10L10 16Z"></path>
    <path class="rp-part g-nudge" style="--nx:1px" d="M10 6 16 4.5v10L10 16Z"></path>
    <path class="rp-part" d="M10 6v10"></path>
    <path class="rp-part" style="opacity:.45" d="M6 8.3l2.3.9M6 10.8l2.3.9"></path>
  </symbol>

  <symbol id="rp-icon-doc-properties" viewBox="0 0 20 20">
    <path class="rp-part" d="M5 3.5h6l3 3v9.5H5Z"></path>
    <path class="rp-part" d="M11 3.5v3h3"></path>
    <circle class="rp-part g-pulse" style="transform-origin:9.5px 11.3px;--ps:1.2" cx="9.5" cy="11.3" r="2.6"></circle>
    <path class="rp-part rp-heavy" d="M9.5 10.3h.01"></path>
    <path class="rp-part" d="M9.5 11.1v1.6"></path>
  </symbol>

  <symbol id="rp-icon-watermark" viewBox="0 0 20 20">
    <path class="rp-part" style="opacity:.4" d="M4.5 3.5h7v13h-7z"></path>
    <path class="rp-part g-pulse" style="transform-origin:11.5px 11px;--ps:1.15" d="M11.5 5.5 14.5 11a3 3 0 1 1-6 0Z"></path>
  </symbol>

  <symbol id="rp-icon-merge" viewBox="0 0 20 20">
    <path class="rp-part g-nudge" style="--nx:1.4px" d="M4 4h4v12H4z"></path>
    <path class="rp-part g-nudge" style="--nx:-1.4px" d="M12 4h4v12h-4z"></path>
    <path class="rp-part g-pulse" style="transform-origin:10px 10px;--ps:1.2" d="M8.5 8 10 10 8.5 12M11.5 8 10 10 11.5 12"></path>
  </symbol>

  <symbol id="rp-icon-compress" viewBox="0 0 20 20">
    <path class="rp-part g-nudge" style="--nx:1px;--ny:1px" d="M8.5 16.5V11.5H3.5M8.5 11.5 2.5 17.5"></path>
    <path class="rp-part g-nudge" style="--nx:-1px;--ny:-1px" d="M11.5 3.5V8.5H16.5M11.5 8.5 17.5 2.5"></path>
  </symbol>

  <symbol id="rp-icon-pdf-to-word" viewBox="0 0 20 20">
    <rect class="rp-part" x="2" y="3.5" width="5" height="13"></rect>
    <path class="rp-part g-nudge" style="--nx:1.2px" d="M8.5 10h3.4M10.3 8.2l2 1.8-2 1.8"></path>
    <rect class="rp-part" x="13" y="3.5" width="5" height="13"></rect>
    <path class="rp-part" style="opacity:.5" d="M14.6 6.5h1.8M14.6 9h2.6M14.6 11.5h2"></path>
  </symbol>

  <symbol id="rp-icon-insert-image" viewBox="0 0 20 20">
    <rect class="rp-part" x="2.5" y="4" width="11" height="10"></rect>
    <circle class="rp-part" cx="6" cy="7.3" r="1"></circle>
    <path class="rp-part" d="m3 12.5 3-3 2.5 2.5 2-2 3 3"></path>
    <path class="rp-part g-pulse" style="transform-origin:16px 15px;--ps:1.25" d="M16 12.5v5M13.5 15h5"></path>
  </symbol>

  <symbol id="rp-icon-batch-cleanup" viewBox="0 0 20 20">
    <rect class="rp-part" x="3.5" y="6" width="9" height="10.5"></rect>
    <path class="rp-part g-nudge" style="--nx:1.6px;--ny:-1.6px" d="M6 6V3.5h9v10.5h-2.5"></path>
    <path class="rp-part g-pulse" style="transform-origin:15.5px 5.5px;--ps:1.3" d="M15.5 3v5M13 5.5h5M13.7 3.7l3.6 3.6M17.3 3.7l-3.6 3.6"></path>
  </symbol>

  <symbol id="rp-icon-pages" viewBox="0 0 20 20">
    <rect class="rp-part g-nudge" style="--nx:-0.8px;--ny:-0.8px" x="3" y="3" width="6" height="7"></rect>
    <rect class="rp-part g-nudge" style="--nx:0.8px;--ny:-0.8px" x="11" y="3" width="6" height="7"></rect>
    <rect class="rp-part g-nudge" style="--nx:-0.8px;--ny:0.8px" x="3" y="12" width="6" height="7"></rect>
    <rect class="rp-part g-nudge" style="--nx:0.8px;--ny:0.8px" x="11" y="12" width="6" height="7"></rect>
  </symbol>
</svg>
